/* XPM */
static char * collectibles_xpm[] = {
"40 40 147 2",
"  	c #000000",
". 	c #0B2B3E",
"+ 	c #2E2500",
"@ 	c #B59800",
"# 	c #A38900",
"$ 	c #625100",
"% 	c #103950",
"& 	c #A88D00",
"* 	c #FFD600",
"= 	c #D0AF00",
"- 	c #194D6B",
"; 	c #1F5B7E",
"> 	c #161000",
", 	c #FED500",
"' 	c #D1AF00",
") 	c #1C5374",
"! 	c #949494",
"~ 	c #B8B8B8",
"{ 	c #35424E",
"] 	c #554600",
"^ 	c #CDAC00",
"/ 	c #6E6E6E",
"( 	c #FDFDFD",
"_ 	c #545454",
": 	c #133F57",
"< 	c #041824",
"[ 	c #1C1600",
"} 	c #816B00",
"| 	c #8D7600",
"1 	c #7D6800",
"2 	c #655300",
"3 	c #216085",
"4 	c #636363",
"5 	c #DDDDDD",
"6 	c #B0B0B0",
"7 	c #4F4100",
"8 	c #BE9F00",
"9 	c #E5C000",
"0 	c #FBD300",
"a 	c #D9B600",
"b 	c #493C00",
"c 	c #174763",
"d 	c #2C78A4",
"e 	c #226287",
"f 	c #134059",
"g 	c #051A28",
"h 	c #665500",
"i 	c #F1CA00",
"j 	c #DEBA00",
"k 	c #5F4E00",
"l 	c #EFC900",
"m 	c #F5CE00",
"n 	c #261E00",
"o 	c #EBC500",
"p 	c #E7C200",
"q 	c #756100",
"r 	c #FDD500",
"s 	c #977E00",
"t 	c #806B00",
"u 	c #F9D100",
"v 	c #DDBA00",
"w 	c #D2B000",
"x 	c #AA8E00",
"y 	c #897200",
"z 	c #786400",
"A 	c #352B00",
"B 	c #9D8300",
"C 	c #CCAB00",
"D 	c #887200",
"E 	c #A38800",
"F 	c #B49700",
"G 	c #B69800",
"H 	c #BC9D00",
"I 	c #957D00",
"J 	c #C7A700",
"K 	c #6A5800",
"L 	c #D6B400",
"M 	c #DEBB00",
"N 	c #E8C300",
"O 	c #4B155E",
"P 	c #F8D000",
"Q 	c #E4BF00",
"R 	c #E9C400",
"S 	c #F0CA00",
"T 	c #2E0A3B",
"U 	c #842BA3",
"V 	c #EAC400",
"W 	c #F3CC00",
"X 	c #3A0E49",
"Y 	c #8D2EAD",
"Z 	c #882DA8",
"` 	c #D7B500",
" .	c #F6CE00",
"..	c #F9D200",
"+.	c #D2D2D2",
"@.	c #D4D4D4",
"#.	c #6A6A6A",
"$.	c #A78B00",
"%.	c #EDC700",
"&.	c #AA8F00",
"*.	c #9C8300",
"=.	c #A98D00",
"-.	c #A58A00",
";.	c #4B3E00",
">.	c #FFFFFF",
",.	c #AFAFAF",
"'.	c #382D00",
").	c #EEC800",
"!.	c #CFCFCF",
"~.	c #FAFAFA",
"{.	c #767676",
"].	c #1C745D",
"^.	c #393939",
"/.	c #8B7400",
"(.	c #FED600",
"_.	c #656565",
":.	c #606060",
"<.	c #8D2FAE",
"[.	c #0D4637",
"}.	c #9C9C9C",
"|.	c #C8A800",
"1.	c #21052B",
"2.	c #752590",
"3.	c #929292",
"4.	c #D0D0D0",
"5.	c #373737",
"6.	c #221A00",
"7.	c #511765",
"8.	c #01130E",
"9.	c #2FAE8E",
"0.	c #2FAF8F",
"a.	c #27967A",
"b.	c #073126",
"c.	c #BFA000",
"d.	c #F6CF00",
"e.	c #8C7500",
"f.	c #062E24",
"g.	c #1B715B",
"h.	c #176350",
"i.	c #0C4436",
"j.	c #09372C",
"k.	c #0D0900",
"l.	c #605000",
"m.	c #947C00",
"n.	c #E2BE00",
"o.	c #B19400",
"p.	c #403400",
"                                                                                ",
"                                                                                ",
"                                                                                ",
"                                                                                ",
"                                                                                ",
"                                                                                ",
"                      .                 + @ # $                                 ",
"                      %                 & * * =                                 ",
"                    - ;               > , * * '                                 ",
"                  ) ! ~ {             ] * * * ^                                 ",
"                  / ( ( _ : <     [ } | | | | | 1 2                             ",
"                3 4 5 6     7 8 9 0 * * * * * * * * a b                         ",
"              c d e f g   h i * * * * * * * * * * * * j                         ",
"                        k l * * * * * * * * * * * * * m                         ",
"                      n o * * * * * * * * * * * * * * p                         ",
"                      q * * * * * * * * * * * * * * r s                         ",
"                      t * * * * u p v w 8 x y z b b A                           ",
"                      B * * * * C     D * * j                                   ",
"                      E * * * * F     E * * v                                   ",
"                      E * * * * G     H * * v                                   ",
"                      I * * * * J     ' * * v                                   ",
"                      K * * * * L     M * * N               O                   ",
"                      [ P * * * Q     R * * S             T U                   ",
"                        V * * * W     W * * m           X Y Z                   ",
"                        ` * * * * E    .* * ..          +.@.#.                  ",
"                        $.* * * * * %.C &.*.*.=.G -.;.  +.>.,.                  ",
"                        '.l * * * * * * * * * * * * ).  !.~.{.                  ",
"                    ].^.  /.(.* * * * * * * * * * * r   _.:.<.                  ",
"                    [.}.    |.* * * * * * * * * * * W   1.2.<.                  ",
"                      3.4.5.6.L * * * * * * * * * * '       7.7.                ",
"                    8.9.0.a.b.6.c.d.* * * * * * * * e.        O                 ",
"                  f.g.h.    i.j.  k.l.y m.*.*.*.*.}                             ",
"                                    6.).* * n.                                  ",
"                                      l.-.o.p.                                  ",
"                                                                                ",
"                                                                                ",
"                                                                                ",
"                                                                                ",
"                                                                                ",
"                                                                                "};
