/* XPM */
static char * exit_xpm[] = {
"40 40 136 2",
"  	c #000000",
". 	c #210C47",
"+ 	c #250F50",
"@ 	c #180838",
"# 	c #020008",
"$ 	c #34176B",
"% 	c #4E269B",
"& 	c #5429A5",
"* 	c #5D2EB5",
"= 	c #6432C2",
"- 	c #6935CB",
"; 	c #6433C3",
"> 	c #592CAE",
", 	c #492391",
"' 	c #36186D",
") 	c #04010F",
"! 	c #11052A",
"~ 	c #47228D",
"{ 	c #6131BC",
"] 	c #6030BB",
"^ 	c #442088",
"/ 	c #3A1B76",
"( 	c #36196F",
"_ 	c #391A74",
": 	c #48228F",
"< 	c #5228A1",
"[ 	c #5E2FB8",
"} 	c #6935CA",
"| 	c #5F2FB8",
"1 	c #200C46",
"2 	c #6030BA",
"3 	c #6835CA",
"4 	c #4C2597",
"5 	c #1E0B41",
"6 	c #1A093B",
"7 	c #46218B",
"8 	c #6633C5",
"9 	c #572BAA",
"0 	c #5329A3",
"a 	c #6533C3",
"b 	c #3C1C78",
"c 	c #250F4E",
"d 	c #2D135E",
"e 	c #51289F",
"f 	c #6834C8",
"g 	c #1E0B43",
"h 	c #0B031F",
"i 	c #6734C8",
"j 	c #5E2FB7",
"k 	c #381971",
"l 	c #4D2598",
"m 	c #5B2DB2",
"n 	c #6835C9",
"o 	c #562BA9",
"p 	c #3F1D7E",
"q 	c #432086",
"r 	c #401E81",
"s 	c #19083A",
"t 	c #5D2EB4",
"u 	c #4D2699",
"v 	c #1F0B44",
"w 	c #260F51",
"x 	c #421F85",
"y 	c #6131BD",
"z 	c #5228A2",
"A 	c #4C2596",
"B 	c #5C2EB3",
"C 	c #482390",
"D 	c #6231BE",
"E 	c #210D48",
"F 	c #4E2699",
"G 	c #5429A4",
"H 	c #4B2495",
"I 	c #4E269A",
"J 	c #6432C1",
"K 	c #5F2FB9",
"L 	c #411F82",
"M 	c #5A2DAF",
"N 	c #13062F",
"O 	c #381A72",
"P 	c #582CAC",
"Q 	c #6533C4",
"R 	c #35186C",
"S 	c #3E1D7C",
"T 	c #2C135B",
"U 	c #240E4D",
"V 	c #6231BF",
"W 	c #34176A",
"X 	c #4F269B",
"Y 	c #46228C",
"Z 	c #371970",
"` 	c #552AA7",
" .	c #3A1A75",
"..	c #291156",
"+.	c #6633C6",
"@.	c #6332C0",
"#.	c #411F83",
"$.	c #4D2597",
"%.	c #592CAD",
"&.	c #271052",
"*.	c #4B2494",
"=.	c #50279D",
"-.	c #331769",
";.	c #1C0A3F",
">.	c #2F1562",
",.	c #2B1259",
"'.	c #1D0A40",
").	c #2A1258",
"!.	c #35186D",
"~.	c #160734",
"{.	c #281155",
"].	c #452189",
"^.	c #6130BC",
"/.	c #070218",
"(.	c #421F83",
"_.	c #3C1C79",
":.	c #572BAB",
"<.	c #6634C6",
"[.	c #311665",
"}.	c #592CAF",
"|.	c #5128A0",
"1.	c #170736",
"2.	c #311564",
"3.	c #401E80",
"4.	c #3F1E7F",
"5.	c #2C135C",
"6.	c #5329A2",
"7.	c #0E0425",
"8.	c #230E4C",
"9.	c #5F30B9",
"0.	c #421F84",
"a.	c #6734C7",
"b.	c #3D1C7A",
"c.	c #5D2FB6",
"d.	c #301563",
"e.	c #50279E",
"                                                                                ",
"                                                                                ",
"                                                                                ",
"                                                                                ",
"                                                                                ",
"                                                                                ",
"                                                                                ",
"                                                                                ",
"                                                                                ",
"                                                                                ",
"                                    . + + + + + + @                             ",
"                      # $ % & * = - - - - - - - - - ; > , ' )                   ",
"                  ! ~ { - - - - ] & ^ / ( ( _ : < [ } - - - | 1                 ",
"                @ 2 - - - 3 4 5                     6 7 8 - - 9                 ",
"                0 - - - a b         # c ' ( ( d 6       5 e 3 f g               ",
"              h i - - j g   ) k l m n - - - - - - o p h     q - r               ",
"              ' - - - g   s t - 3 u v       v w x m - y c     [ z               ",
"              A - - B     e - i b     c ~ C < p     v m D E   F j               ",
"              G - - H     m - I       < J < K 3 L     + - M   H 3 N             ",
"              G - - L     m - O       G P   ) 8 n s     Q - s H - +             ",
"              4 - - L     > - R       S <   T - - U     V - W X - R             ",
"              x - - Y     e - Z             o - - 6     V - R ` -  .            ",
"              ..- - D N   ( - [ E         , - - +.      @.- R m - #.            ",
"                @.- - $.    j - n y > < %.3 - i p       - 3 &.@.- *.            ",
"                =.- - f -.  ;.u = - - - - n > >.      ,.- H '.- - H             ",
"                ).n - - a ..    ! !.( ( &.~.      {.].; ^./.r - - Y             ",
"                  (.- - - Q , _.( ( ( ( ( _.q ^ :.3 - j d   > - - L             ",
"                    L <.- - - - - - - - - - - - j A [.      = - -  .            ",
"                      {.}.- - - - - - - - 8 |.Z #         1.- - n g             ",
"                          2.3.l u u u 4.5./.              ].- - 6.              ",
"                                                        N J - j 7.              ",
"                                                    8.L 9.- a E                 ",
"              b q q q q q q 0.( ( ( ( ( ( / ].C 4 B a.- - - b.                  ",
"              c.- - - - - - - - - - - - - - - - - - - - - =.                    ",
"              d.` 2 - - - - - - - - - - - - - - - - - <.e.)                     ",
"                                  5 + + + + + + + /.                            ",
"                                                                                ",
"                                                                                ",
"                                                                                ",
"                                                                                "};
