/* XPM */
static char * sol_xpm[] = {
"40 40 90 1",
" 	c #000000",
".	c #0B2B3E",
"+	c #103950",
"@	c #194D6B",
"#	c #1F5B7E",
"$	c #1C5374",
"%	c #949494",
"&	c #B8B8B8",
"*	c #35424E",
"=	c #6E6E6E",
"-	c #FDFDFD",
";	c #FFFFFF",
">	c #8E8E8E",
",	c #2B77A2",
"'	c #0E3449",
")	c #216085",
"!	c #636363",
"~	c #DDDDDD",
"{	c #E7E7E7",
"]	c #787878",
"^	c #0D3045",
"/	c #174763",
"(	c #2C78A4",
"_	c #226287",
":	c #14415B",
"<	c #2A74A0",
"[	c #02101A",
"}	c #1E587A",
"|	c #010B13",
"1	c #4B155E",
"2	c #2E0A3B",
"3	c #842BA3",
"4	c #010B07",
"5	c #22062C",
"6	c #3A0E49",
"7	c #8D2EAD",
"8	c #882DA8",
"9	c #062E24",
"0	c #23896F",
"a	c #57196C",
"b	c #692182",
"c	c #280733",
"d	c #9A9A9A",
"e	c #ECECEC",
"f	c #D4D4D4",
"g	c #6A6A6A",
"h	c #2BA486",
"i	c #238B71",
"j	c #7E299B",
"k	c #8E2FAF",
"l	c #BDBDBD",
"m	c #AFAFAF",
"n	c #BBBBBB",
"o	c #BFBFBF",
"p	c #7D7D7D",
"q	c #1F7D65",
"r	c #5D1C74",
"s	c #B0B0B0",
"t	c #FAFAFA",
"u	c #767676",
"v	c #1C755E",
"w	c #8C8C8C",
"x	c #F5F5F5",
"y	c #1E0427",
"z	c #601D78",
"A	c #401050",
"B	c #501763",
"C	c #6D2287",
"D	c #802A9F",
"E	c #7E7E7E",
"F	c #606060",
"G	c #8D2FAE",
"H	c #0D4637",
"I	c #C0C0C0",
"J	c #FBFBFB",
"K	c #2B0837",
"L	c #752590",
"M	c #929292",
"N	c #9B9B9B",
"O	c #238A70",
"P	c #511765",
"Q	c #01130E",
"R	c #2FAE8E",
"S	c #2FAF8F",
"T	c #2EAC8C",
"U	c #1B715B",
"V	c #176350",
"W	c #104F3F",
"X	c #22856C",
"Y	c #115141",
"                                        ",
"                                        ",
"                                        ",
"                                        ",
"                                        ",
"                                        ",
"           .                            ",
"           +                            ",
"          @#                            ",
"         $%&*                           ",
"         =-;>,'                         ",
"        )!~{]^                          ",
"       /(_:)<                           ",
"           [}                           ",
"            |                           ",
"                                        ",
"                                        ",
"                                        ",
"                                        ",
"                                        ",
"                                        ",
"                              1         ",
"                             23         ",
"               4      5     678         ",
"              90      5ab cdefg         ",
"              hi        ajkl;;m         ",
"            nopq          rs;tu         ",
"          vw;;xq    yzA cBCDEFG         ",
"          HI;;Jq            KLG         ",
"           MtJNO              PP        ",
"          QRSSST4              1        ",
"         9UV  WXY                       ",
"                                        ",
"                                        ",
"                                        ",
"                                        ",
"                                        ",
"                                        ",
"                                        ",
"                                        "};
