/* XPM */
static char * player_xpm[] = {
"40 40 287 2",
"  	c #000000",
". 	c #0B2B3E",
"+ 	c #103950",
"@ 	c #194D6B",
"# 	c #1F5B7E",
"$ 	c #1C5374",
"% 	c #949494",
"& 	c #B8B8B8",
"* 	c #35424E",
"= 	c #6E6E6E",
"- 	c #FDFDFD",
"; 	c #FFFFFF",
"> 	c #8E8E8E",
", 	c #2B77A2",
"' 	c #0E3449",
") 	c #216085",
"! 	c #636363",
"~ 	c #DDDDDD",
"{ 	c #E7E7E7",
"] 	c #787878",
"^ 	c #0D3045",
"/ 	c #141414",
"( 	c #313131",
"_ 	c #3A3A3A",
": 	c #3B3B3B",
"< 	c #3F3F3F",
"[ 	c #373737",
"} 	c #2F2F2F",
"| 	c #1D1D1D",
"1 	c #174763",
"2 	c #2C78A4",
"3 	c #226287",
"4 	c #14415B",
"5 	c #2A74A0",
"6 	c #4F4F4F",
"7 	c #ACACAC",
"8 	c #F6F6F6",
"9 	c #BDD0FC",
"0 	c #AEAEAE",
"a 	c #424242",
"b 	c #5E5E5E",
"c 	c #050505",
"d 	c #02101A",
"e 	c #1E587A",
"f 	c #727272",
"g 	c #3C3C3C",
"h 	c #535353",
"i 	c #D6D6D6",
"j 	c #B0C9FF",
"k 	c #FAFAFC",
"l 	c #EADAFF",
"m 	c #E6D1FF",
"n 	c #E0DBE7",
"o 	c #C7D7FF",
"p 	c #C8D9FF",
"q 	c #5A5A5A",
"r 	c #626262",
"s 	c #3B3C3E",
"t 	c #EDEDED",
"u 	c #D1DFFF",
"v 	c #D0DDFF",
"w 	c #C27BFF",
"x 	c #AE00FF",
"y 	c #B548FF",
"z 	c #D7E2FF",
"A 	c #AAC5FF",
"B 	c #F4F4F4",
"C 	c #666666",
"D 	c #90B6FF",
"E 	c #F5F8FF",
"F 	c #C380FF",
"G 	c #F7F0FF",
"H 	c #E4ECFF",
"I 	c #94B9FF",
"J 	c #929292",
"K 	c #262626",
"L 	c #1C1C1C",
"M 	c #767676",
"N 	c #F6F8FF",
"O 	c #AEC8FF",
"P 	c #C37FFF",
"Q 	c #AE09FF",
"R 	c #B12DFF",
"S 	c #B95EFF",
"T 	c #FDFBFF",
"U 	c #F4F7FF",
"V 	c #60A0FF",
"W 	c #888888",
"X 	c #737373",
"Y 	c #4D4D4D",
"Z 	c #F2F2F2",
"` 	c #D4E0FF",
" .	c #DFE8FF",
"..	c #D4ABFF",
"+.	c #B95DFF",
"@.	c #F5EDFF",
"#.	c #4998FF",
"$.	c #FCFDFF",
"%.	c #7B7B7B",
"&.	c #8A8A8A",
"*.	c #060606",
"=.	c #0A0A0A",
"-.	c #0E0E0E",
";.	c #717171",
">.	c #A3C1FF",
",.	c #FAFBFF",
"'.	c #F9F5FF",
").	c #AE0BFF",
"!.	c #CC99FF",
"~.	c #7AABFF",
"{.	c #EAF0FF",
"].	c #656565",
"^.	c #959595",
"/.	c #171717",
"(.	c #616161",
"_.	c #848484",
":.	c #777777",
"<.	c #CDDBFF",
"[.	c #C88EFF",
"}.	c #B655FE",
"|.	c #F8FBF9",
"1.	c #B6CFF9",
"2.	c #E8F2EE",
"3.	c #E4EEEA",
"4.	c #848A87",
"5.	c #404040",
"6.	c #363636",
"7.	c #2C2C2C",
"8.	c #1F1F1F",
"9.	c #010101",
"0.	c #838383",
"a.	c #57B69A",
"b.	c #2FAF8F",
"c.	c #34947A",
"d.	c #396457",
"e.	c #3B413F",
"f.	c #3B403F",
"g.	c #3B4742",
"h.	c #3A5048",
"i.	c #444E5A",
"j.	c #4A4D64",
"k.	c #4A5367",
"l.	c #4A5F6D",
"m.	c #58557F",
"n.	c #3A554D",
"o.	c #3A574D",
"p.	c #3A5A4F",
"q.	c #396557",
"r.	c #367F6B",
"s.	c #588777",
"t.	c #7F7F7F",
"u.	c #2E2E2E",
"v.	c #358D75",
"w.	c #329D81",
"x.	c #30A98B",
"y.	c #30AA8B",
"z.	c #30AC8D",
"A.	c #2FAD8D",
"B.	c #31A688",
"C.	c #339B7F",
"D.	c #8C8C8C",
"E.	c #1E1E1E",
"F.	c #6FBCA4",
"G.	c #3B4A45",
"H.	c #3B4B45",
"I.	c #3B4844",
"J.	c #396A5B",
"K.	c #484848",
"L.	c #020202",
"M.	c #32A083",
"N.	c #33977C",
"O.	c #34957B",
"P.	c #358871",
"Q.	c #39695A",
"R.	c #377A67",
"S.	c #387362",
"T.	c #387261",
"U.	c #396B5C",
"V.	c #3A6356",
"W.	c #396658",
"X.	c #3A554C",
"Y.	c #3B4340",
"Z.	c #3B4240",
"`.	c #396356",
" +	c #36816B",
".+	c #329E82",
"++	c #131313",
"@+	c #030303",
"#+	c #396355",
"$+	c #3A564D",
"%+	c #3B4F48",
"&+	c #348F76",
"*+	c #3C3D3C",
"=+	c #349379",
"-+	c #161616",
";+	c #0D0D0D",
">+	c #348D75",
",+	c #377B68",
"'+	c #3A524A",
")+	c #3A564C",
"!+	c #31A285",
"~+	c #2FAE8E",
"{+	c #396255",
"]+	c #3B4944",
"^+	c #31A385",
"/+	c #386B5B",
"(+	c #3B3E3D",
"_+	c #368871",
":+	c #386E5E",
"<+	c #339A7E",
"[+	c #31A587",
"}+	c #3A534B",
"|+	c #3A5149",
"1+	c #3B3D3C",
"2+	c #368770",
"3+	c #2FAD8F",
"4+	c #329F83",
"5+	c #3A5D52",
"6+	c #0C0C0C",
"7+	c #30A889",
"8+	c #2FA98C",
"9+	c #349077",
"0+	c #387160",
"a+	c #33967B",
"b+	c #3B3F3D",
"c+	c #36866F",
"d+	c #414141",
"e+	c #377E69",
"f+	c #31A789",
"g+	c #396054",
"h+	c #5AA48D",
"i+	c #383838",
"j+	c #2D2D2D",
"k+	c #4A4A4A",
"l+	c #465F57",
"m+	c #36816D",
"n+	c #32A687",
"o+	c #31A689",
"p+	c #3B4541",
"q+	c #386D5D",
"r+	c #151515",
"s+	c #292929",
"t+	c #3E3E3E",
"u+	c #595B5B",
"v+	c #4F5352",
"w+	c #707573",
"x+	c #6B6B6B",
"y+	c #6C6F6E",
"z+	c #5F6E69",
"A+	c #626765",
"B+	c #494949",
"C+	c #474747",
"D+	c #454545",
"E+	c #434343",
"F+	c #3D3D3D",
"G+	c #232323",
"H+	c #350000",
"I+	c #E50000",
"J+	c #FEAB00",
"K+	c #3F3AFA",
"L+	c #352CFC",
"M+	c #FE8900",
"N+	c #DD0000",
"O+	c #2A0000",
"P+	c #121212",
"Q+	c #A30000",
"R+	c #FF0000",
"S+	c #FEB300",
"T+	c #E9E172",
"U+	c #E7DF79",
"V+	c #FEBA00",
"W+	c #A00000",
"X+	c #CE0000",
"Y+	c #E90000",
"Z+	c #E20000",
"`+	c #FF6300",
" @	c #E70000",
".@	c #B90000",
"+@	c #F30000",
"@@	c #C10000",
"#@	c #550000",
"$@	c #8B0000",
"%@	c #8C0000",
"&@	c #450000",
"*@	c #950000",
"=@	c #D80000",
"-@	c #160000",
"                                                                                ",
"                                                                                ",
"                                                                                ",
"                                                                                ",
"                                                                                ",
"                                                                                ",
"                      .                                                         ",
"                      +                                                         ",
"                    @ #                                                         ",
"                  $ % & *                                                       ",
"                  = - ; > , '                                                   ",
"                ) ! ~ { ] ^   / ( _ : _ < < < [ } |                             ",
"              1 2 3 4 ) 5   6 < < 7 8 ; ; ; ; 9 0 a b c                         ",
"                      d e f g h i j k l m n ; o p ~ q r                         ",
"                        s g f t u v w x x y ; z A ; B C                         ",
"                        = ] B ; D E F   x   G H I ; ; J K                       ",
"                      L M B ; N O ; P Q R S T U V ; ; W X                       ",
"                      Y Z ; ; `  .; ..x x +.@.; #.$.; %.&.                      ",
"              *.=.=.-.;.; ; ; >.,.'.).x x x !.; ~.{.; ].^.                      ",
"          /.[ : h (._.:.; ; ; <.; [.x x x x }.|.1.2.3.4.g 5.< 6.7.8.9.          ",
"          ( 0.a.b.b.b.b.c.d.e.f.g.h.i.j.k.l.m.n.o.p.q.r.b.b.b.b.b.s.t.u.        ",
"        9.&.v.w.x.y.y.y.z.b.b.b.b.b.b.b.b.b.b.b.b.b.b.b.b.b.A.y.B.w.C.D.E.      ",
"        / F.g g g g g g g g g G.H.H.H.H.H.H.H.H.H.H.H.H.H.I.g g g g g J.K.L.    ",
"        q b.M.N.O.v.P.Q.R.S.T.U.V.W.X.H.H.H.H.Y.g g g Z.`. +v.O.O..+y.b.g ++    ",
"      @+< b.b.b.b.b.#+$+b.b.b..+Y.b.b.b.b.b.b.%+&+b.b.b.b.c.*+=+b.b.b.b.g -+    ",
"      ;+g b.b.b.b.>+g ,+b.b.b.'+)+b.b.b.b.b.b.!+J.b.b.b.b.~+{+]+^+b.b.b.g -+    ",
"      ;+g b.b.b.b./+(+b.b.b.=+g _+b.b.b.b.b.b.b.:+<+b.b.b.b.[+}+|+[+b.b.g -.    ",
"      ;+g b.b.b.b.1+2+b.b.b./+(+3+b.b.b.b.b.b.b.4+Y.!+b.b.b.b.B.H.5+z.b.g 6+    ",
"      ;+g b.b.b.7+g 8+b.b.[+g 9+b.b.b.b.b.b.b.b.b.0+o.b.b.b.b.b.a+b+c+b.d+      ",
"      c g b.b.b.Q.G.b.b.b.e+X.b.b.b.b.b.b.b.b.b.b.f+*+A.b.b.b.b.b.v.g+h+i+      ",
"        j+Y k+l+m+n+b.b.b.Q.o+b.b.b.b.b.b.b.b.b.b.b.p+!+b.b.b.b.b.b.q+C r+      ",
"          9.L s+t+u+v+w+:.x+y+z+A+q B+C+C+C+C+D+D+D+E+F+g g g g g g : G+        ",
"                            9.=.H+I+J+K+L+M+N+O+L L L L L L L L L L P+          ",
"                                Q+R+S+T+U+V+R+W+                                ",
"                                X+Y+Z+`+ @.@+@@@                                ",
"                                #@  $@R+%@  &@*@                                ",
"                                    &@=@                                        ",
"                                      -@                                        ",
"                                                                                ",
"                                                                                "};
